<svg width="60" height="60" viewBox="0 0 60 60" fill="none" xmlns="http://www.w3.org/2000/svg">
<circle cx="30" cy="30" r="30" fill="#7C4091"/>
<path d="M12.75 37.3636C11.8333 36.2121 11.1458 35.0303 10.6875 33.8182C10.2292 32.6061 10 31.3636 10 30.0909C10 26.0303 11.9375 22.5758 15.8125 19.7273C19.6875 16.8788 24.4167 15.4545 30 15.4545H30.4375L26.4375 12.5455L29.9375 10L39.9375 17.2727L29.9375 24.5455L26.4375 22L30.4375 19.0909H30C25.8333 19.0909 22.2917 20.1591 19.375 22.2955C16.4583 24.4318 15 27.0303 15 30.0909C15 30.8788 15.125 31.6515 15.375 32.4091C15.625 33.1667 16 33.9091 16.5 34.6364L12.75 37.3636ZM30.0625 50L20.0625 42.7273L30.0625 35.4545L33.5625 38L29.5625 40.9091H30C34.1667 40.9091 37.7083 39.8409 40.625 37.7045C43.5417 35.5682 45 32.9697 45 29.9091C45 29.1212 44.875 28.3485 44.625 27.5909C44.375 26.8333 44 26.0909 43.5 25.3636L47.25 22.6364C48.1667 23.7879 48.8542 24.9697 49.3125 26.1818C49.7708 27.3939 50 28.6364 50 29.9091C50 33.9697 48.0625 37.4242 44.1875 40.2727C40.3125 43.1212 35.5833 44.5455 30 44.5455H29.5625L33.5625 47.4545L30.0625 50Z" fill="white"/>
</svg>
